
<svg width="200" height="50" viewBox="0 0 200 50" fill="none" xmlns="http://www.w3.org/2000/svg">
  <path d="M35 10L25 30L15 10H10L23 35V45H27V35L40 10H35Z" fill="#0E91E3"/>
  <path d="M45 10V45H50V30H65L70 45H75L70 30C75 29 80 25 80 20C80 15 75 10 65 10H45ZM50 15H65C70 15 75 17 75 20C75 23 70 25 65 25H50V15Z" fill="#0E91E3"/>
  <path d="M85 10V45H90V35H105V30H90V15H110V10H85Z" fill="#0E91E3"/>
  <path d="M115 10V45H120V30H125L135 45H140L130 30C135 29 140 25 140 20C140 15 135 10 125 10H115ZM120 15H125C130 15 135 17 135 20C135 23 130 25 125 25H120V15Z" fill="#0E91E3"/>
  <path d="M145 10V45H165C175 45 185 40 185 27.5C185 15 175 10 165 10H145ZM150 15H165C172 15 180 18 180 27.5C180 37 172 40 165 40H150V15Z" fill="#0E91E3"/>
  <path d="M190 10H195V45H190V10Z" fill="#0E91E3"/>
</svg>
