
<svg width="160" height="160" viewBox="0 0 160 160" fill="none" xmlns="http://www.w3.org/2000/svg">
  <rect width="160" height="160" rx="30" fill="#0E91E3"/>
  <path d="M40 55V109H49.8V90.5H76.8L86.6 109H96.4L86.6 90.5C97.4 89.5 104.8 81.5 104.8 71C104.8 59.5 94 55 82.2 55H40ZM49.8 63H80.2C88.6 63 95 66 95 71C95 76 88.6 81 80.2 81H49.8V63Z" fill="white"/>
  <path d="M113.8 55L99.4 109H109.2L113.6 93.5H127L131.4 109H141.2L126.8 55H113.8ZM115.6 85.5L120.2 65.5L124.8 85.5H115.6Z" fill="white"/>
</svg>
