
<svg width="200" height="50" viewBox="0 0 200 50" fill="none" xmlns="http://www.w3.org/2000/svg">
  <path d="M15 10L25 30L35 10H40L27 35V45H23V35L10 10H15Z" fill="#0E91E3"/>
  <path d="M50 10V45H55V30H70L75 45H80L75 30C80 29 85 25 85 20C85 15 80 10 70 10H50ZM55 15H70C75 15 80 17 80 20C80 23 75 25 70 25H55V15Z" fill="#0E91E3"/>
  <path d="M90 10V45H95V35H110V30H95V15H115V10H90Z" fill="#0E91E3"/>
  <path d="M120 10V45H125V30H130L140 45H145L135 30C140 29 145 25 145 20C145 15 140 10 130 10H120ZM125 15H130C135 15 140 17 140 20C140 23 135 25 130 25H125V15Z" fill="#0E91E3"/>
  <path d="M150 10V45H170C180 45 190 40 190 27.5C190 15 180 10 170 10H150ZM155 15H170C177 15 185 18 185 27.5C185 37 177 40 170 40H155V15Z" fill="#0E91E3"/>
</svg>
